<?xml version="1.0" standalone="no"?>
<!DOCTYPE svg PUBLIC "-//W3C//DTD SVG 20010904//EN"
 "http://www.w3.org/TR/2001/REC-SVG-20010904/DTD/svg10.dtd">
<svg version="1.0" xmlns="http://www.w3.org/2000/svg"
 width="512.000000pt" height="512.000000pt" viewBox="0 0 512.000000 512.000000"
 preserveAspectRatio="xMidYMid meet">

<g transform="translate(0.000000,512.000000) scale(0.100000,-0.100000)"
fill="#000000" stroke="none">
<path d="M2405 5114 c-16 -2 -66 -9 -110 -15 -315 -41 -632 -172 -900 -373
-103 -77 -294 -268 -371 -371 -199 -266 -322 -558 -375 -895 -21 -127 -18
-458 5 -595 118 -721 528 -1471 1254 -2290 138 -156 486 -504 538 -538 49 -33
115 -43 174 -27 39 10 68 35 206 173 799 804 1379 1694 1580 2427 60 215 78
349 78 570 1 211 -8 293 -55 481 -84 341 -251 632 -508 890 -298 297 -641 473
-1061 544 -91 15 -392 28 -455 19z m380 -1034 c322 -82 576 -337 667 -667 30
-108 32 -325 4 -433 -87 -339 -326 -585 -661 -682 -68 -19 -103 -23 -235 -23
-132 0 -167 4 -235 23 -335 97 -574 343 -661 682 -28 111 -26 327 4 433 62
218 178 390 347 515 115 85 270 150 410 172 89 14 267 4 360 -20z"/>
</g>
</svg>
