<svg xmlns:mydata="http://www.w3.org/2000/svg" mydata:contrastcolor="ffffff" mydata:template="Contrast" mydata:presentation="2.5" mydata:layouttype="undefined" mydata:specialfontid="undefined" mydata:id1="101" mydata:id2="475" mydata:companyname="Help Party" mydata:companytagline="" version="1.1" xmlns="http://www.w3.org/2000/svg" xmlns:xlink="http://www.w3.org/1999/xlink" viewBox="0 30 550 410"><g fill="none" fill-rule="none" stroke="none" stroke-width="1" stroke-linecap="butt" stroke-linejoin="miter" stroke-miterlimit="10" stroke-dasharray="" stroke-dashoffset="0" font-family="none" font-weight="none" font-size="none" text-anchor="none" style="mix-blend-mode: normal"><g data-paper-data="{&quot;isGlobalGroup&quot;:true,&quot;bounds&quot;:{&quot;x&quot;:65,&quot;y&quot;:145.18143838072612,&quot;width&quot;:420,&quot;height&quot;:179.63767962613994}}"><g data-paper-data="{&quot;stacked&quot;:true,&quot;isPrimaryText&quot;:true}" fill-rule="nonzero"><path d="M310.0545,214.94877h-9.17171v-68.29997h9.17171v28.68599h29.6617v-28.68599h9.17171v68.29997h-9.17171v-31.0277h-29.6617z" data-paper-data="{&quot;glyphName&quot;:&quot;H&quot;,&quot;glyphIndex&quot;:0,&quot;firstGlyphOfWord&quot;:true,&quot;word&quot;:1,&quot;line&quot;:1,&quot;firstGlyphOfFirstLine&quot;:true}" fill="#888b8d"></path><path d="M384.50147,167.13879c11.05809,0.45533 16.58714,5.04119 16.58714,13.75757c0,10.86295 -7.12271,16.29442 -21.36813,16.29442h-4.00043v-7.513h4.68343c4.35819,0 7.3829,-0.66674 9.07414,-2.00021c1.69124,-1.33348 2.53686,-3.56136 2.53686,-6.68364c0,-2.01648 -0.74805,-3.52883 -2.24414,-4.53707c-1.49609,-1.00824 -3.415,-1.51236 -5.75671,-1.51236c-4.61838,0 -8.24478,1.62619 -10.87921,4.87857c-2.63443,3.25238 -3.95164,7.15524 -3.95164,11.70857c0,4.81352 1.41479,8.71638 4.24436,11.70857c2.82957,2.99219 6.52102,4.48828 11.07435,4.48828c4.098,0 7.44795,-1.00824 10.04985,-3.02471l5.85428,5.75671c-4.48828,3.64267 -9.78966,5.464 -15.90414,5.464c-7.41543,0 -13.33476,-2.17909 -17.75799,-6.53728c-4.42324,-4.35819 -6.63485,-9.98481 -6.63485,-16.87985c0,-7.67562 2.17909,-13.88766 6.53728,-18.63613c4.35819,-4.74847 10.31004,-6.99262 17.85556,-6.73243z" data-paper-data="{&quot;glyphName&quot;:&quot;e&quot;,&quot;glyphIndex&quot;:1,&quot;word&quot;:1,&quot;line&quot;:1}" fill="#888b8d"></path><path d="M410.84575,196.41021v-49.76141h8.78142v49.76141c0,2.34171 0.27645,4.24436 0.82936,5.70793c0.5529,1.46357 1.41479,2.50433 2.58564,3.12228c1.17086,0.61795 2.30919,1.0245 3.415,1.21964c1.10581,0.19514 2.56938,0.29271 4.39071,0.29271v8.196c-7.28533,0 -12.44035,-1.39852 -15.46506,-4.19557c-3.02471,-2.79705 -4.53707,-7.57804 -4.53707,-14.34299z" data-paper-data="{&quot;glyphName&quot;:&quot;l&quot;,&quot;glyphIndex&quot;:2,&quot;word&quot;:1,&quot;line&quot;:1}" fill="#888b8d"></path><path d="M437.19002,237.19505v-45.66341c0,-3.38247 0.61795,-6.56981 1.85386,-9.562c1.2359,-2.99219 2.92714,-5.57783 5.07371,-7.75693c2.14657,-2.17909 4.68343,-3.90286 7.61057,-5.17128c2.92714,-1.26843 6.04943,-1.90264 9.36685,-1.90264c3.31743,0 6.42345,0.63421 9.31807,1.90264c2.89462,1.26843 5.43147,3.00845 7.61057,5.22007c2.17909,2.21162 3.88659,4.79726 5.1225,7.75693c1.2359,2.95967 1.85386,6.13074 1.85386,9.51321c0,3.38247 -0.60169,6.55354 -1.80507,9.51321c-1.20338,2.95967 -2.87836,5.54531 -5.02493,7.75693c-2.14657,2.21162 -4.68343,3.95164 -7.61057,5.22007c-2.92714,1.26843 -6.08195,1.90264 -9.46442,1.90264c-4.16305,0 -8.03338,-0.97571 -11.611,-2.92714v-8.78142c3.18733,2.34171 6.96009,3.51257 11.31828,3.51257c2.34171,0 4.47202,-0.40655 6.39093,-1.21964c1.9189,-0.81309 3.54509,-1.93517 4.87857,-3.36621c1.33348,-1.43105 2.35798,-3.13855 3.0735,-5.1225c0.71552,-1.98395 1.07329,-4.14678 1.07329,-6.4885c0,-2.34171 -0.35776,-4.50455 -1.07329,-6.4885c-0.71552,-1.98395 -1.72376,-3.69145 -3.02471,-5.1225c-1.30095,-1.43105 -2.87836,-2.55312 -4.73221,-3.36621c-1.85386,-0.81309 -3.95164,-1.21964 -6.29335,-1.21964c-2.27667,0 -4.34193,0.39029 -6.19578,1.17086c-1.85386,0.78057 -3.44752,1.88638 -4.781,3.31743c-1.33348,1.43105 -2.35798,3.13855 -3.0735,5.1225c-0.71552,1.98395 -1.07329,4.17931 -1.07329,6.58607v45.66341z" data-paper-data="{&quot;glyphName&quot;:&quot;p&quot;,&quot;glyphIndex&quot;:3,&quot;lastGlyphOfWord&quot;:true,&quot;word&quot;:1,&quot;line&quot;:1,&quot;lastGlyphOfFirstLine&quot;:true}" fill="#888b8d"></path><path d="M303.09353,237.19505c-1.22096,0 -2.21074,-0.98978 -2.21074,-2.21074v0c0,-1.22096 0.98978,-2.21074 2.21074,-2.21074h122.67989c1.22096,0 2.21074,0.98978 2.21074,2.21074v0c0,1.22096 -0.98978,2.21074 -2.21074,2.21074zM457.38805,237.19505c-1.22096,0 -2.21074,-0.98978 -2.21074,-2.21074v0c0,-1.22096 0.98978,-2.21074 2.21074,-2.21074h25.40121c1.22096,0 2.21074,0.98978 2.21074,2.21074v0c0,1.22096 -0.98978,2.21074 -2.21074,2.21074z" data-paper-data="{&quot;isStackedPrimarySeparatorLines&quot;:true,&quot;isRounded&quot;:true,&quot;isStackedPrimarySeparatorLine1&quot;:true}" fill="#888b8d"></path><path d="M308.92135,303.85342h-8.03856v-39.33763c0,-6.7273 1.8101,-11.97232 5.4303,-15.73505c3.6202,-3.76273 8.42338,-5.64409 14.40954,-5.64409c6.38524,0 11.33095,1.82435 14.83713,5.47306c3.50618,3.64871 5.25927,8.29511 5.25927,13.9392c0,3.53469 -0.64137,6.61328 -1.92412,9.23579c-1.28275,2.62251 -3.00733,4.6464 -5.17375,6.07168c-2.16642,1.42528 -4.47537,2.47998 -6.92684,3.16411c-2.45148,0.68413 -5.01697,1.0262 -7.69649,1.0262h-6.41374v-7.52546h7.35443c3.81974,0 6.82707,-1.15447 9.022,-3.46342c2.19493,-2.30895 3.29239,-5.20226 3.29239,-8.67993c0,-3.42066 -1.01195,-6.22846 -3.03584,-8.42338c-2.02389,-2.19493 -4.9172,-3.29239 -8.67993,-3.29239c-3.64871,0 -6.51351,1.23999 -8.59442,3.71997c-2.0809,2.47998 -3.12136,5.74386 -3.12136,9.79165z" data-paper-data="{&quot;glyphName&quot;:&quot;P&quot;,&quot;glyphIndex&quot;:4,&quot;firstGlyphOfWord&quot;:true,&quot;word&quot;:2,&quot;line&quot;:2,&quot;firstGlyphOfSecondLine&quot;:true}" fill="#101820"></path><path d="M371.77604,279.73774v7.69649c-2.16642,-1.65332 -4.81743,-2.47998 -7.95304,-2.47998c-2.67952,0 -4.76042,0.52735 -6.24271,1.58206c-1.48229,1.0547 -2.22343,2.55124 -2.22343,4.48962c0,3.76273 2.79354,5.64409 8.38063,5.64409h11.28819v-16.33367c0,-6.89834 -3.36365,-10.34751 -10.09096,-10.34751h-13.68265v-7.18339h14.11024c5.53007,0 9.7774,1.36827 12.74197,4.1048c2.96457,2.73653 4.44686,6.67029 4.44686,11.80129v25.14188h-19.0702c-4.84594,0 -8.69419,-1.08321 -11.54474,-3.24963c-2.85055,-2.16642 -4.27583,-5.33053 -4.27583,-9.49234c0,-4.16181 1.51079,-7.32592 4.53238,-9.49234c3.02159,-2.16642 6.81282,-3.24963 11.37371,-3.24963c2.5655,0 5.30203,0.45609 8.20959,1.36827z" data-paper-data="{&quot;glyphName&quot;:&quot;a&quot;,&quot;glyphIndex&quot;:5,&quot;word&quot;:2,&quot;line&quot;:2}" fill="#101820"></path><path d="M390.67521,303.85342v-23.34603c0,-6.55627 1.22574,-11.08865 3.67721,-13.59714c1.19723,-1.25424 2.65101,-2.19493 4.36135,-2.82205c1.71033,-0.62712 3.20687,-0.99769 4.48962,-1.11172c1.28275,-0.11402 3.03584,-0.17103 5.25927,-0.17103h7.52546v7.18339h-9.06476c-1.14022,0 -2.02389,0.02851 -2.65101,0.08552c-0.62712,0.05701 -1.36827,0.25655 -2.22343,0.59862c-0.85517,0.34207 -1.59631,0.88367 -2.22343,1.62482c-1.08321,1.36827 -1.62482,4.1048 -1.62482,8.20959v23.34603z" data-paper-data="{&quot;glyphName&quot;:&quot;r&quot;,&quot;glyphIndex&quot;:6,&quot;word&quot;:2,&quot;line&quot;:2}" fill="#101820"></path><path d="M417.27086,269.98885l15.30747,-15.30747v8.12408h11.54474v7.18339h-11.54474v17.61642c0,1.99539 0.32781,3.64871 0.98344,4.95996c0.65563,1.31125 1.61056,2.23768 2.86481,2.77929c1.25424,0.54161 2.43722,0.89792 3.54894,1.06896c1.11172,0.17103 2.49423,0.25655 4.14755,0.25655v7.18339c-6.55627,0 -11.40221,-1.25424 -14.53782,-3.76273c-3.13561,-2.50849 -4.70341,-6.67029 -4.70341,-12.48542v-17.61642z" data-paper-data="{&quot;glyphName&quot;:&quot;t&quot;,&quot;glyphIndex&quot;:7,&quot;word&quot;:2,&quot;line&quot;:2}" fill="#101820"></path><path d="M450.9644,262.80546h7.52546v21.46466c0,4.6179 0.71264,7.83902 2.13791,9.66337c1.42528,1.82435 4.04779,2.73653 7.86753,2.73653h8.97924v-33.86457h7.52546v38.99556c0,7.12638 -1.86711,12.49967 -5.60134,16.11988c-3.73422,3.6202 -9.59211,5.4303 -17.57366,5.4303h-6.15719v-7.18339h5.38754c10.43302,0 15.90608,-4.1048 16.41918,-12.31439h-7.18339c-7.46845,0 -12.55669,-1.31125 -15.26471,-3.93376c-2.70803,-2.62251 -4.06204,-7.95304 -4.06204,-15.9916z" data-paper-data="{&quot;glyphName&quot;:&quot;y&quot;,&quot;glyphIndex&quot;:8,&quot;lastGlyphOfWord&quot;:true,&quot;word&quot;:2,&quot;line&quot;:2,&quot;lastGlyphOfSecondLine&quot;:true}" fill="#101820"></path></g><g data-paper-data="{&quot;isIcon&quot;:&quot;true&quot;,&quot;iconType&quot;:&quot;icon&quot;,&quot;rawIconId&quot;:&quot;_zaT6oq-2hdC9Mrp7LHmWj8wWqf0DedlyNgXFalLqH&quot;,&quot;source&quot;:&quot;ai&quot;,&quot;selectedEffects&quot;:{&quot;container&quot;:&quot;&quot;,&quot;transformation&quot;:&quot;&quot;,&quot;pattern&quot;:&quot;&quot;},&quot;isDetailed&quot;:false,&quot;iconStyle&quot;:&quot;standalone&quot;,&quot;bounds&quot;:{&quot;x&quot;:65,&quot;y&quot;:145.18143838072612,&quot;width&quot;:198.13843720792914,&quot;height&quot;:179.63767962613994},&quot;fillRule&quot;:&quot;evenodd&quot;,&quot;suitableAsStandaloneIcon&quot;:true}" fill-rule="evenodd"><g data-paper-data="{&quot;isPathIcon&quot;:true}"><path d="M225.98596,145.55716c-0.581,0.338 -0.625,1.514 -0.625,16.597c0,9.656 0.133,16.233 0.329,16.233c0.181,0 1.092,-0.763 2.024,-1.696c1.944,-1.944 3.2,-4.44 3.858,-7.665l0.459,-2.247l15.499,-0.178c13.617,-0.157 15.513,-0.246 15.607,-0.732c0.058,-0.304 -1.587,-2.547 -3.656,-4.985c-2.069,-2.438 -3.762,-4.694 -3.762,-5.014c0,-0.468 2.978,-4.26 7.065,-8.995c0.433,-0.502 0.449,-0.721 0.083,-1.161c-0.392,-0.472 -2.768,-0.541 -18.353,-0.532c-11.495,0.007 -18.127,0.142 -18.528,0.375z" fill="#888b8d"></path><path d="M65.625,145.55716c-0.3439,0.201 -0.625,0.531 -0.625,0.736c0,0.204 1.6475,2.375 3.6608,4.824c2.0132,2.449 3.7058,4.578 3.7604,4.732c0.0551,0.153 -1.5993,2.339 -3.6761,4.856c-2.0768,2.518 -3.7269,4.834 -3.6665,5.147c0.0978,0.51 1.74,0.58 15.4707,0.663l15.3607,0.093l0.4175,2.197c0.589,3.098 2.294,6.35 4.2985,8.197l1.696,1.563l0.093,-16.209c0.067,-11.671 -0.02,-16.346 -0.311,-16.697c-0.332,-0.4 -3.58,-0.486 -18.1293,-0.477c-11.3731,0.007 -17.9486,0.142 -18.3497,0.375z" fill="#888b8d"></path><path d="M129.21698,145.45816c-6.861,0.053 -8.668,0.067 -9.276,0.928c-0.28,0.397 -0.305,0.976 -0.454,1.821c-0.138,0.786 -1.195,5.366 -2.348,10.179c-3.92,16.36 -5.76,24.71199 -5.559,25.23499c0.11,0.287 1.207,0.984 2.436,1.547c1.23,0.565 5.048,2.315 8.485,3.89c3.438,1.576 6.356,2.752 6.486,2.615c0.129,-0.138 1.056,-3.421 2.059,-7.295c3.463,-13.373 6.942,-23.34699 11.605,-33.26899c1.097,-2.332 1.994,-4.525 1.994,-4.872c0,-0.639 -0.782,-1.136 -1.547,-0.982c-0.23,0.047 -5.436,0.129 -11.569,0.184c-0.828,0.007 -1.597,0.013 -2.312,0.019z" fill="#888b8d"></path><path d="M184.01997,145.46416c-1.15,0.164 -1.025,1.067 0.593,4.287c4.555,9.059 9.098,22.14699 12.914,37.20699c0.622,2.455 1.233,4.577 1.357,4.715c0.125,0.137 3.2,-1.08 6.833,-2.707c9.382,-4.197 10.715,-4.901 10.715,-5.66c0,-0.356 -1.672,-7.916 -3.715,-16.801c-2.043,-8.885 -3.914,-17.066 -4.157,-18.18c-0.244,-1.113 -0.573,-2.233 -0.73,-2.489c-0.226,-0.365 -2.719,-0.466 -11.647,-0.475c-6.247,-0.006 -11.721,0.04 -12.163,0.103z" fill="#888b8d"></path><path d="M235.19796,175.41616c-1.412,3.254 -5.253,7.134 -9.613,9.709c-4.588,2.711 -18.606,9.135 -46.24399,21.19399c-4.195,1.83 -7.583,3.486 -7.529,3.68c0.054,0.194 3.808,2.01 8.341,4.036c6.187,2.765 8.51,3.644 9.314,3.526c1.209,-0.178 22.09199,-9.581 29.46499,-13.267c9.22,-4.61 14.009,-8.603 16.578,-13.824c1.372,-2.787 2.336,-6.587 2.342,-9.226c0.005,-2.057 -0.607,-5.836 -1.165,-7.203l-0.433,-1.059z" fill="#888b8d"></path><path d="M91.03239,174.90416c-1.0851,3.882 -0.9065,9.739 0.4036,13.24c2.5282,6.758 7.893,11.506 19.033,16.845c8.475,4.062 41.27699,18.372 76.14098,33.21699c5.247,2.233 23.18599,10.127 28.71199,12.633c11.406,5.173 17.694,9.786 20.21699,14.832l0.873,1.746l0.368,-0.968c0.698,-1.836 1.165,-6.104 0.937,-8.565c-0.604,-6.519 -4.291,-12.14 -10.903,-16.624c-3.393,-2.302 -12.253,-6.456 -34.31099,-16.087c-3.241,-1.415 -8.947,-3.908 -12.679,-5.54c-3.732,-1.633 -14.259,-6.179 -23.39399,-10.102c-31.72799,-13.63 -37.87599,-16.354 -47.34599,-20.97799c-9.9468,-4.857 -14.0583,-8.1 -16.2773,-12.842c-0.5982,-1.278 -1.1468,-2.325 -1.2189,-2.325c-0.0722,0 -0.3218,0.684 -0.5554,1.518z" fill="#101820"></path><path d="M91.09839,204.36915c-0.2478,0.737 -0.5357,3.134 -0.6396,5.328c-0.1629,3.44 -0.08,4.348 0.6011,6.607c2.1721,7.202 6.8669,11.749 17.2661,16.722c4.913,2.35 32.95999,14.695 51.13999,22.51099c23.52599,10.112 30.50599,13.147 41.42999,18.008c16.219,7.218 25.51599,11.862 28.45399,14.217c3.034,2.431 5.056,4.881 6.051,7.333c0.939,2.313 1.178,2.077 1.941,-1.914c0.651,-3.404 0.647,-5.376 -0.019,-8.542c-1.57,-7.462 -7.405,-13.312 -18.823,-18.867c-8.053,-3.918 -34.97299,-15.743 -57.42599,-25.22699c-36.47799,-15.406 -54.93699,-23.79399 -60.71598,-27.58899c-3.2169,-2.112 -6.4145,-5.425 -7.6006,-7.875c-0.5461,-1.128 -1.0414,-2.051 -1.1007,-2.051c-0.0593,0 -0.3104,0.603 -0.5583,1.339z" fill="#101820"></path><path d="M235.41296,204.85315c-1.124,2.451 -4.597,6.043 -8.089,8.367c-2.558,1.702 -10.366,5.663 -19.61299,9.95c-1.565,0.725 -2.682,1.441 -2.5,1.601c0.18,0.161 1.935,0.985 3.9,1.833c1.964,0.848 5.399,2.4 7.634,3.448c2.234,1.049 4.323,1.907 4.642,1.907c1.3,0 6.723,-3.503 9.528,-6.155c4.664,-4.407 6.711,-9.05 6.738,-15.274c0.013,-3.139 -0.602,-6.939 -1.181,-7.297c-0.135,-0.083 -0.611,0.646 -1.059,1.62z" fill="#888b8d"></path><path d="M104.10799,239.56314c-6.9866,3.779 -11.2388,8.499 -13.0463,14.48c-0.6833,2.26 -0.7658,3.166 -0.6033,6.607c0.1036,2.194 0.3801,4.621 0.6143,5.393l0.4261,1.404l1.1133,-2.075c1.3864,-2.584 4.6979,-6.01 7.7459,-8.014c2.05,-1.348 11.966,-6.37 20.17899,-10.22l2.857,-1.34l-2.143,-1.002c-3.802,-1.779 -14.461,-6.408 -14.735,-6.4c-0.146,0.004 -1.229,0.53 -2.408,1.167z" fill="#888b8d"></path><path d="M132.14398,255.39114c-3.241,1.479 -8.946,4.059 -12.678,5.733c-8.133,3.649 -14.873,7.052 -18.037,9.108c-4.5597,2.963 -8.3016,7.52 -10.0877,12.288c-0.6836,1.825 -0.7925,2.812 -0.785,7.119c0.0064,3.672 0.1525,5.328 0.5504,6.236l0.5418,1.236l1.0861,-2.307c2.1682,-4.609 6.1072,-7.817 15.1234,-12.319c6.441,-3.216 17.202,-8.096 41.33999,-18.748c4.174,-1.842 7.469,-3.467 7.321,-3.611c-0.547,-0.535 -17.06,-7.452 -17.756,-7.438c-0.399,0.009 -3.377,1.224 -6.619,2.703z" fill="#888b8d"></path><path d="M120.39299,282.34113c-4.598,2.13 -8.515,4.028 -8.705,4.218c-0.224,0.224 0.186,2.667 1.155,6.892c2.819,12.289 7.226,30.82999 7.392,31.09899c0.091,0.148 5.607,0.269 12.258,0.269c9.351,0 12.128,-0.102 12.25,-0.447c0.086,-0.245 -0.566,-1.893 -1.449,-3.661c-4.665,-9.333 -8.349,-19.90299 -12.376,-35.50599c-0.883,-3.42 -1.731,-6.335 -1.886,-6.478c-0.154,-0.142 -4.042,1.484 -8.639,3.614z" fill="#888b8d"></path><path d="M198.76697,279.19313c-0.078,0.245 -0.966,3.499 -1.973,7.232c-3.811,14.124 -7.13,23.65399 -11.156,32.02599c-1.453,3.025 -2.427,5.479 -2.303,5.804c0.192,0.498 1.61,0.564 12.148,0.564c9.126,0 12.013,-0.106 12.275,-0.447c0.188,-0.245 0.929,-3.018 1.647,-6.161c0.718,-3.143 2.593,-11.242 4.166,-17.998c1.574,-6.756 2.861,-12.637 2.861,-13.068c0,-0.506 -0.348,-0.946 -0.982,-1.241c-4.649,-2.165 -15.964,-7.158 -16.219,-7.158c-0.177,0 -0.386,0.201 -0.464,0.447z" fill="#888b8d"></path><path d="M100.09399,293.83513c-2.1204,2.154 -3.0751,4.087 -3.7015,7.497l-0.4425,2.407l-15.3807,0.093c-13.4943,0.082 -15.3939,0.16 -15.4864,0.641c-0.0583,0.302 1.5068,2.548 3.4772,4.991c1.9707,2.445 3.5829,4.749 3.5829,5.122c0,0.372 -1.6222,2.592 -3.6047,4.932c-2.2586,2.665 -3.5297,4.451 -3.4029,4.78c0.175,0.456 2.674,0.514 18.6943,0.434l18.4923,-0.092l0.093,-16.34c0.051,-8.987 -0.035,-16.34 -0.191,-16.34c-0.156,0 -1.114,0.844 -2.13,1.875z" fill="#888b8d"></path><path d="M225.78896,324.39012c-0.32,-0.321 -0.428,-4.461 -0.428,-16.429c0,-12.057 0.104,-16.001 0.421,-16.001c0.719,0 3.452,3.209 4.423,5.193c0.508,1.039 1.105,2.947 1.327,4.241l0.402,2.353h15.426c13.125,0 15.455,0.077 15.623,0.516c0.119,0.311 -0.949,1.909 -2.687,4.018c-4.281,5.195 -4.731,5.941 -4.188,6.954c0.245,0.458 1.952,2.576 3.793,4.707c2.695,3.117 3.267,3.971 2.933,4.375c-0.348,0.418 -3.412,0.502 -18.516,0.502c-13.602,0 -18.207,-0.107 -18.529,-0.429z" fill="#888b8d"></path></g></g></g></g></svg>